<svg width="1280" height="720" xmlns="http://www.w3.org/2000/svg" xmlns:xlink="http://www.w3.org/1999/xlink" overflow="hidden"><defs><clipPath id="clip0"><path d="M0 0 1280 0 1280 720 0 720Z" fill-rule="evenodd" clip-rule="evenodd"/></clipPath></defs><g clip-path="url(#clip0)"><rect x="0" y="0" width="1280" height="720" fill="#000000" fill-opacity="0"/><rect x="241.5" y="223.5" width="147" height="127" stroke="#FFFFFF" stroke-width="1.33333" stroke-miterlimit="8" fill="none"/><text fill="#FFFFFF" font-family="Ubuntu,Ubuntu_MSFontService,sans-serif" font-weight="400" font-size="32" transform="translate(253.258 280)">Data I/O</text><path d="M339.447 294.206C342.489 295.008 344.825 296.74 346.455 299.401 348.085 302.063 348.9 305.273 348.9 309.034 348.9 312.805 348.088 316.016 346.463 318.667 344.838 321.318 342.499 323.044 339.447 323.846L339.072 322.643C341.478 321.841 343.267 320.258 344.439 317.893 345.611 315.529 346.197 312.523 346.197 308.878 346.197 305.357 345.614 302.432 344.447 300.104 343.281 297.776 341.473 296.211 339.025 295.409ZM289.237 294.206 289.659 295.409C287.222 296.211 285.417 297.776 284.245 300.104 283.073 302.432 282.487 305.357 282.487 308.878 282.487 312.523 283.073 315.529 284.245 317.893 285.417 320.258 287.206 321.841 289.612 322.643L289.237 323.846C286.185 323.044 283.847 321.318 282.222 318.667 280.597 316.016 279.784 312.805 279.784 309.034 279.784 305.273 280.599 302.063 282.229 299.401 283.86 296.74 286.196 295.008 289.237 294.206Z" fill="#FFFFFF" fill-rule="evenodd"/><text fill="#FFFFFF" font-family="Cambria Math,Cambria Math_MSFontService,sans-serif" font-weight="400" font-size="32" transform="translate(290.252 318)">ğ‘¥<tspan x="17.9667" y="0">,</tspan><tspan x="29.8" y="0">ğ‘¦</tspan></text><rect x="449.5" y="223.5" width="305" height="127" stroke="#FFFFFF" stroke-width="1.33333" stroke-miterlimit="8" fill="none"/><text fill="#FFFFFF" font-family="Ubuntu,Ubuntu_MSFontService,sans-serif" font-weight="400" font-size="32" transform="translate(488.42 279)">Network Model<tspan font-family="Cambria Math,Cambria Math_MSFontService,sans-serif" x="36" y="39">ğ‘¦</tspan></text><path d="M7.67188-22.5313 12.9844-17.6094 12.1406-16.7188 6.625-20.5156 6.45313-20.5156 0.84375-16.7188 0-17.6094 5.57813-22.5313Z" fill="#FFFFFF" transform="translate(528.613 318)"/><text fill="#FFFFFF" font-family="Cambria Math,Cambria Math_MSFontService,sans-serif" font-weight="400" font-size="32" transform="translate(551.687 318)">=<tspan x="32.72" y="0">ğ‘“</tspan><tspan x="51.3267" y="0">(</tspan><tspan x="64.66" y="0">ğ‘¥</tspan><tspan x="82.6266" y="0">,</tspan><tspan x="94.46" y="0">ğœƒ</tspan><tspan x="113.4" y="0">)</tspan></text><rect x="433.5" y="397.5" width="337" height="110" stroke="#FFFFFF" stroke-width="1.33333" stroke-miterlimit="8" fill="none"/><text fill="#FFFFFF" font-family="Ubuntu,Ubuntu_MSFontService,sans-serif" font-weight="400" font-size="32" transform="translate(445.967 445)">Optimization Scheme<tspan font-family="Cambria Math,Cambria Math_MSFontService,sans-serif" x="18.66" y="39">ğœƒ</tspan><tspan font-family="Cambria Math,Cambria Math_MSFontService,sans-serif" font-size="23" x="38.2267" y="27">ğ‘–</tspan><tspan font-family="Cambria Math,Cambria Math_MSFontService,sans-serif" font-size="23" x="47.1933" y="27">+</tspan><tspan font-family="Cambria Math,Cambria Math_MSFontService,sans-serif" font-size="23" x="64.1933" y="27">1</tspan><tspan font-family="Cambria Math,Cambria Math_MSFontService,sans-serif" x="87.9067" y="39">=</tspan><tspan font-family="Cambria Math,Cambria Math_MSFontService,sans-serif" x="120.627" y="39">ğœƒ</tspan><tspan font-family="Cambria Math,Cambria Math_MSFontService,sans-serif" font-size="23" x="140.193" y="27">ğ‘–</tspan><tspan font-family="Cambria Math,Cambria Math_MSFontService,sans-serif" x="157.6" y="39">âˆ’</tspan><tspan font-family="Cambria Math,Cambria Math_MSFontService,sans-serif" x="188.547" y="39">ğœ‚</tspan><tspan font-family="Cambria Math,Cambria Math_MSFontService,sans-serif" x="206.32" y="39">âˆ‡</tspan><tspan font-family="Cambria Math,Cambria Math_MSFontService,sans-serif" font-size="23" x="225.32" y="45">Î¸</tspan><tspan font-family="Cambria Math,Cambria Math_MSFontService,sans-serif" x="240.98" y="39">ğ½</tspan></text><path d="M725.869 459.558C728.911 460.36 731.247 462.092 732.877 464.754 734.507 467.415 735.322 470.626 735.322 474.386 735.322 478.157 734.51 481.368 732.885 484.019 731.26 486.67 728.921 488.397 725.869 489.199L725.494 487.996C727.9 487.194 729.689 485.61 730.861 483.246 732.033 480.881 732.619 477.876 732.619 474.23 732.619 470.709 732.036 467.785 730.869 465.457 729.702 463.129 727.895 461.564 725.447 460.761ZM712.006 459.558 712.427 460.761C709.99 461.564 708.185 463.129 707.013 465.457 705.842 467.785 705.256 470.709 705.256 474.23 705.256 477.876 705.842 480.881 707.013 483.246 708.185 485.61 709.974 487.194 712.381 487.996L712.006 489.199C708.954 488.397 706.615 486.67 704.99 484.019 703.365 481.368 702.552 478.157 702.552 474.386 702.552 470.626 703.368 467.415 704.998 464.754 706.628 462.092 708.964 460.36 712.006 459.558Z" fill="#FFFFFF" fill-rule="evenodd"/><text fill="#FFFFFF" font-family="Cambria Math,Cambria Math_MSFontService,sans-serif" font-weight="400" font-size="32" transform="translate(713.02 484)">.</text><rect x="813.5" y="232.5" width="237" height="110" stroke="#FFFFFF" stroke-width="1.33333" stroke-miterlimit="8" fill="none"/><text fill="#FFFFFF" font-family="Ubuntu,Ubuntu_MSFontService,sans-serif" font-weight="400" font-size="32" transform="translate(831.577 280)">Cost Function<tspan font-family="Cambria Math,Cambria Math_MSFontService,sans-serif" x="56.0267" y="38">ğ½</tspan></text><path d="M963.286 294.206C966.328 295.008 968.664 296.74 970.294 299.401 971.924 302.063 972.739 305.273 972.739 309.034 972.739 312.805 971.927 316.016 970.302 318.667 968.677 321.318 966.338 323.044 963.286 323.846L962.911 322.643C965.317 321.841 967.106 320.258 968.278 317.893 969.45 315.529 970.036 312.523 970.036 308.878 970.036 305.357 969.453 302.432 968.286 300.104 967.119 297.776 965.312 296.211 962.864 295.409ZM912.663 294.206 913.084 295.409C910.647 296.211 908.842 297.776 907.67 300.104 906.498 302.432 905.913 305.357 905.913 308.878 905.913 312.523 906.498 315.529 907.67 317.893 908.842 320.258 910.631 321.841 913.038 322.643L912.663 323.846C909.61 323.044 907.272 321.318 905.647 318.667 904.022 316.016 903.209 312.805 903.209 309.034 903.209 305.273 904.025 302.063 905.655 299.401 907.285 296.74 909.621 295.008 912.663 294.206Z" fill="#FFFFFF" fill-rule="evenodd"/><text fill="#FFFFFF" font-family="Cambria Math,Cambria Math_MSFontService,sans-serif" font-weight="400" font-size="32" transform="translate(913.677 318)">ğ‘¦<tspan x="18.38" y="0">,</tspan><tspan x="30.2134" y="0">ğ‘¦</tspan></text><path d="M7.67188-22.5313 12.9844-17.6094 12.1406-16.7188 6.625-20.5156 6.45313-20.5156 0.84375-16.7188 0-17.6094 5.57813-22.5313Z" fill="#FFFFFF" transform="translate(948.084 318)"/><path d="M388.5 287.167 443.127 287.167 443.127 287.833 388.5 287.833ZM441.793 283.5 449.793 287.5 441.793 291.5Z" fill="#FFFFFF"/><path d="M754.5 287.167 807.09 287.167 807.09 287.833 754.5 287.833ZM805.757 283.5 813.757 287.5 805.757 291.5Z" fill="#FFFFFF"/><path d="M932.475 342.5 932.475 452.815 777.167 452.815 777.167 452.148 932.142 452.148 931.808 452.482 931.808 342.5ZM778.5 456.482 770.5 452.482 778.5 448.482Z" fill="#FFFFFF"/></g></svg>