<svg width="1248" height="576" xmlns="http://www.w3.org/2000/svg" xmlns:xlink="http://www.w3.org/1999/xlink" overflow="hidden"><defs><clipPath id="clip0"><path d="M0 0 1248 0 1248 576 0 576Z" fill-rule="evenodd" clip-rule="evenodd"/></clipPath></defs><g clip-path="url(#clip0)"><rect x="0" y="0" width="1248" height="576" fill="#000000" fill-opacity="0"/><rect x="284.5" y="148.5" width="702" height="263" stroke="#FFFFFF" stroke-width="3" stroke-miterlimit="8" fill="none"/><path d="M473.202 273.019C474.096 273.019 474.86 273.139 475.492 273.379 475.928 273.553 476.365 273.842 476.801 274.246 477.237 274.649 477.624 275.211 477.962 275.931 478.3 276.651 478.595 277.457 478.846 278.352 479.096 279.246 479.374 280.533 479.68 282.212 480.203 285.026 480.71 287.986 481.201 291.094 481.692 294.202 482.112 297.086 482.461 299.747 484.576 296.694 486.37 293.706 487.842 290.783 489.314 287.861 490.372 285.32 491.015 283.161 491.659 281.002 491.981 279.246 491.981 277.894 491.981 276.869 491.762 276.171 491.326 275.8 490.89 275.429 490.148 275.211 489.102 275.146L489.429 273.543 498.033 273.543 498.916 275.178C497.259 279.715 495.012 284.568 492.177 289.736 489.385 294.796 486.19 299.834 482.591 304.851 479.145 309.627 476.277 313.084 473.987 315.221 472.395 316.683 470.858 317.729 469.375 318.362 468.197 318.842 466.943 319.082 465.612 319.082 465.154 319.082 464.625 319.043 464.026 318.967 463.426 318.891 462.962 318.787 462.635 318.656L464.042 312.31 466.627 312.31C466.627 313.706 467.106 314.403 468.066 314.403 469.331 314.403 470.803 313.613 472.482 312.032 474.162 310.45 476.136 308.068 478.404 304.883 477.771 301.067 476.91 296.465 475.819 291.078 474.663 285.32 473.9 281.754 473.529 280.38 473.071 278.722 472.592 277.665 472.09 277.207 471.785 276.923 471.403 276.781 470.945 276.781 470.247 276.781 469.593 277.065 468.982 277.632 468.371 278.199 467.619 279.18 466.725 280.576L464.598 279.17C466.103 276.923 467.51 275.336 468.818 274.41 470.127 273.483 471.588 273.019 473.202 273.019Z" fill="#FFFFFF" fill-rule="evenodd"/><text fill="#000000" fill-opacity="0" font-family="Arial,Arial_MSFontService,sans-serif" font-size="46.0625" x="462.635" y="313.324">𝑦</text><path d="M524.274 290.293 564.579 290.293 564.579 294.644 524.274 294.644ZM524.274 276.716 564.579 276.716 564.579 281.067 524.274 281.067Z" fill="#FFFFFF" fill-rule="evenodd"/><text fill="#000000" fill-opacity="0" font-family="Arial,Arial_MSFontService,sans-serif" font-size="17.9277" x="524.274" y="292.403">=</text><path d="M589.912 273.543 598.483 273.543 600.446 299.355C603.522 294.338 605.741 290.522 607.104 287.904 608.467 285.287 609.476 283.024 610.13 281.116 610.784 279.208 611.286 277.218 611.635 275.146L611.995 273.543 616.706 273.543 619.094 299.387C622.496 294.546 625.086 290.32 626.864 286.71 628.641 283.101 629.53 280.162 629.53 277.894 629.53 276.869 629.312 276.171 628.876 275.8 628.439 275.429 627.698 275.211 626.651 275.146L626.978 273.543 635.419 273.543 636.302 275.178C635.538 277.119 634.928 278.613 634.47 279.66 634.012 280.707 633.412 281.967 632.67 283.439 631.929 284.911 631.144 286.378 630.315 287.839 629.486 289.3 628.51 290.909 627.387 292.664 626.264 294.42 625.004 296.328 623.608 298.39 622.213 300.451 620.566 302.768 618.669 305.341L614.775 305.341 613.434 291.667C613.325 290.598 613.211 289.202 613.091 287.479 612.971 285.756 612.889 284.426 612.845 283.488L612.485 283.455C611.308 286.356 609.705 289.584 607.676 293.139 605.648 296.694 603.14 300.761 600.152 305.341L595.768 305.341 593.282 280.707C593.151 279.442 592.987 278.417 592.791 277.632 592.595 276.847 592.268 276.258 591.81 275.865 591.352 275.473 590.599 275.233 589.552 275.146ZM649.675 272.986C650.351 272.986 650.946 273.063 651.458 273.215 651.971 273.368 652.423 273.603 652.816 273.919 653.209 274.235 653.557 274.644 653.863 275.146 654.168 275.647 654.463 276.329 654.746 277.19 655.03 278.052 655.297 279.12 655.548 280.396 655.798 281.672 656.022 282.997 656.218 284.371L656.545 284.371C658.639 281.427 660.226 279.273 661.305 277.91 662.385 276.547 663.296 275.533 664.037 274.868 664.779 274.202 665.493 273.733 666.18 273.461 666.867 273.188 667.778 273.052 668.912 273.052 669.937 273.052 670.776 273.183 671.431 273.444L670.122 279.366 667.832 279.366C667.701 278.45 667.32 277.992 666.687 277.992 666.491 277.992 666.284 278.025 666.065 278.09 665.847 278.155 665.58 278.297 665.264 278.515 664.948 278.733 664.484 279.159 663.874 279.791 663.263 280.424 662.576 281.198 661.813 282.114 661.049 283.03 660.264 283.99 659.457 284.993L657.232 287.774C657.625 289.867 657.996 291.678 658.345 293.204 658.694 294.731 659.005 296.001 659.277 297.016 659.55 298.03 659.79 298.831 659.997 299.42 660.204 300.009 660.428 300.451 660.668 300.745 660.907 301.039 661.153 301.247 661.404 301.367 661.654 301.487 661.943 301.547 662.271 301.547 662.859 301.547 663.432 301.318 663.988 300.859 664.544 300.401 665.346 299.366 666.393 297.752L668.519 299.158C666.992 301.427 665.613 303.024 664.381 303.951 663.148 304.878 661.682 305.341 659.981 305.341 659.043 305.341 658.247 305.172 657.592 304.834 656.938 304.496 656.371 303.957 655.891 303.215 655.411 302.473 654.986 301.318 654.615 299.747 653.939 296.956 653.525 294.818 653.372 293.335L653.045 293.335C650.733 296.585 649.016 298.918 647.892 300.336 646.769 301.754 645.842 302.801 645.112 303.477 644.381 304.153 643.672 304.627 642.985 304.9 642.298 305.172 641.388 305.309 640.253 305.309 639.228 305.309 638.389 305.178 637.734 304.916L639.043 298.995 641.333 298.995C641.464 299.911 641.846 300.369 642.478 300.369 642.783 300.369 643.105 300.287 643.443 300.123 643.781 299.96 644.266 299.567 644.899 298.946 645.531 298.324 646.404 297.348 647.516 296.018 648.628 294.687 650.242 292.692 652.358 290.031 652.031 288.308 651.693 286.65 651.344 285.058 650.995 283.466 650.635 281.983 650.264 280.609 649.893 279.235 649.588 278.335 649.348 277.91 649.108 277.485 648.852 277.19 648.579 277.027 648.307 276.863 647.963 276.781 647.549 276.781 647.091 276.781 646.677 276.885 646.306 277.092 645.935 277.299 645.531 277.659 645.095 278.172 644.659 278.684 644.081 279.486 643.361 280.576L641.235 279.17C642.609 277.098 643.928 275.549 645.193 274.524 646.458 273.499 647.952 272.986 649.675 272.986Z" fill="#FFFFFF" fill-rule="evenodd"/><text fill="#000000" fill-opacity="0" font-family="Arial,Arial_MSFontService,sans-serif" font-size="32.355" x="589.552" y="301.297">𝑤𝑥</text><path d="M712.124 264.644 716.769 264.644 716.769 283.488 734.599 283.488 734.599 287.839 716.769 287.839 716.769 306.683 712.124 306.683 712.124 287.839 694.294 287.839 694.294 283.488 712.124 283.488Z" fill="#FFFFFF" fill-rule="evenodd"/><text fill="#000000" fill-opacity="0" font-family="Arial,Arial_MSFontService,sans-serif" font-size="42.0386" x="694.294" y="301.428">+</text><path d="M776.869 276.847C775.822 276.847 774.791 277.179 773.777 277.845 772.763 278.51 771.634 279.611 770.391 281.149 769.148 282.686 768.134 284.262 767.349 285.876 766.563 287.49 765.898 289.551 765.353 292.059L765.058 293.433C764.731 294.96 764.568 296.443 764.568 297.882 764.568 299.605 764.944 300.849 765.696 301.612 766.449 302.375 767.697 302.757 769.442 302.757 770.336 302.757 771.187 302.61 771.994 302.315 772.801 302.021 773.624 301.536 774.464 300.859 775.304 300.183 776.1 299.295 776.852 298.193 777.605 297.092 778.297 295.734 778.93 294.12 779.562 292.506 780.053 290.778 780.402 288.935 780.751 287.092 780.925 285.331 780.925 283.651 780.925 281.383 780.603 279.682 779.96 278.548 779.317 277.414 778.286 276.847 776.869 276.847ZM771.143 258.036 773.041 258.036 767.283 280.936 767.708 281.067C769.824 278.232 771.809 276.182 773.662 274.917 775.516 273.652 777.37 273.019 779.224 273.019 781.601 273.019 783.45 273.924 784.769 275.734 786.089 277.545 786.748 280.096 786.748 283.39 786.748 286.988 786.023 290.527 784.573 294.006 783.122 297.484 781.111 300.243 778.537 302.283 775.963 304.322 773.085 305.341 769.9 305.341 767 305.341 764.426 304.633 762.18 303.215L759.17 305.341 757.076 304.818 765.549 267.425C766.051 265.2 766.302 263.586 766.302 262.583 766.302 261.667 766.024 261.024 765.467 260.653 764.911 260.282 763.913 260.075 762.474 260.031L762.867 258.33Z" fill="#FFFFFF" fill-rule="evenodd"/><text fill="#000000" fill-opacity="0" font-family="Arial,Arial_MSFontService,sans-serif" font-size="47.3057" x="757.076" y="299.428">𝑏</text><path d="M108.5 279 276.637 279 276.637 282 108.5 282ZM275.136 276 284.136 280.5 275.136 285Z" fill="#FFFFFF"/><path d="M986.5 279 1124.64 279 1124.64 282 986.5 282ZM1123.14 276 1132.14 280.5 1123.14 285Z" fill="#FFFFFF"/><path d="M67.1169 262.913C67.793 262.913 68.3873 262.989 68.8999 263.142 69.4124 263.294 69.865 263.529 70.2575 263.845 70.6501 264.161 70.9991 264.57 71.3044 265.072 71.6097 265.573 71.9042 266.255 72.1877 267.116 72.4712 267.978 72.7384 269.047 72.9892 270.322 73.24 271.598 73.4636 272.923 73.6599 274.297L73.987 274.297C76.0808 271.353 77.6674 269.199 78.747 267.836 79.8266 266.473 80.7372 265.459 81.4787 264.794 82.2203 264.128 82.9345 263.659 83.6215 263.387 84.3086 263.114 85.2191 262.978 86.3532 262.978 87.3783 262.978 88.218 263.109 88.8723 263.371L87.5637 269.292 85.2736 269.292C85.1428 268.376 84.7611 267.918 84.1286 267.918 83.9323 267.918 83.7251 267.951 83.507 268.016 83.2889 268.081 83.0218 268.223 82.7055 268.441 82.3893 268.659 81.9258 269.085 81.3151 269.717 80.7045 270.35 80.0175 271.124 79.2541 272.04 78.4908 272.956 77.7056 273.916 76.8986 274.919L74.674 277.7C75.0666 279.793 75.4374 281.604 75.7863 283.13 76.1353 284.657 76.4461 285.927 76.7187 286.942 76.9913 287.956 77.2312 288.757 77.4384 289.346 77.6456 289.935 77.8692 290.377 78.1091 290.671 78.349 290.965 78.5944 291.173 78.8452 291.293 79.096 291.413 79.385 291.473 79.7121 291.473 80.301 291.473 80.8735 291.244 81.4296 290.786 81.9858 290.328 82.7873 289.292 83.8342 287.678L85.9607 289.084C84.434 291.353 83.0545 292.95 81.8222 293.877 80.59 294.804 79.1233 295.267 77.4221 295.267 76.4843 295.267 75.6882 295.098 75.0339 294.76 74.3796 294.422 73.8125 293.883 73.3327 293.141 72.8529 292.399 72.4276 291.244 72.0568 289.673 71.3807 286.882 70.9664 284.744 70.8137 283.261L70.4865 283.261C68.1747 286.511 66.4572 288.844 65.3339 290.262 64.2107 291.68 63.2838 292.727 62.5532 293.403 61.8226 294.079 61.1137 294.553 60.4267 294.826 59.7397 295.098 58.8291 295.235 57.695 295.235 56.67 295.235 55.8303 295.104 55.176 294.842L56.4846 288.921 58.7746 288.921C58.9055 289.837 59.2872 290.295 59.9196 290.295 60.225 290.295 60.5467 290.213 60.8847 290.049 61.2228 289.886 61.7081 289.493 62.3405 288.872 62.973 288.25 63.8454 287.274 64.9577 285.944 66.07 284.613 67.684 282.618 69.7995 279.957 69.4724 278.234 69.1343 276.576 68.7854 274.984 68.4364 273.392 68.0765 271.909 67.7058 270.535 67.335 269.161 67.0297 268.261 66.7898 267.836 66.5499 267.411 66.2936 267.116 66.021 266.953 65.7483 266.789 65.4048 266.707 64.9904 266.707 64.5324 266.707 64.118 266.811 63.7473 267.018 63.3765 267.225 62.973 267.585 62.5368 268.098 62.1006 268.61 61.5227 269.412 60.8029 270.502L58.6765 269.096C60.0505 267.024 61.37 265.475 62.635 264.45 63.8999 263.425 65.3939 262.913 67.1169 262.913Z" fill="#FFFFFF" fill-rule="evenodd"/><text fill="#000000" fill-opacity="0" font-family="Arial,Arial_MSFontService,sans-serif" font-size="32.355" x="55.176" y="291.223">𝑥</text><path d="M1151.6 262.945C1152.5 262.945 1153.26 263.065 1153.89 263.305 1154.33 263.48 1154.77 263.769 1155.2 264.172 1155.64 264.576 1156.03 265.137 1156.36 265.857 1156.7 266.577 1157 267.384 1157.25 268.278 1157.5 269.172 1157.78 270.459 1158.08 272.138 1158.61 274.952 1159.11 277.912 1159.6 281.02 1160.09 284.128 1160.51 287.012 1160.86 289.673 1162.98 286.62 1164.77 283.632 1166.24 280.709 1167.72 277.787 1168.77 275.246 1169.42 273.087 1170.06 270.928 1170.38 269.172 1170.38 267.82 1170.38 266.795 1170.16 266.097 1169.73 265.726 1169.29 265.355 1168.55 265.137 1167.5 265.072L1167.83 263.469 1176.44 263.469 1177.32 265.104C1175.66 269.641 1173.41 274.494 1170.58 279.663 1167.79 284.722 1164.59 289.76 1160.99 294.777 1157.55 299.553 1154.68 303.01 1152.39 305.147 1150.8 306.609 1149.26 307.656 1147.78 308.288 1146.6 308.768 1145.35 309.008 1144.01 309.008 1143.56 309.008 1143.03 308.97 1142.43 308.893 1141.83 308.817 1141.36 308.713 1141.04 308.582L1142.44 302.236 1145.03 302.236C1145.03 303.632 1145.51 304.329 1146.47 304.329 1147.73 304.329 1149.21 303.539 1150.88 301.958 1152.56 300.376 1154.54 297.994 1156.81 294.809 1156.17 290.993 1155.31 286.391 1154.22 281.004 1153.07 275.246 1152.3 271.68 1151.93 270.306 1151.47 268.648 1150.99 267.591 1150.49 267.133 1150.19 266.849 1149.81 266.707 1149.35 266.707 1148.65 266.707 1148 266.991 1147.38 267.558 1146.77 268.125 1146.02 269.107 1145.13 270.502L1143 269.096C1144.51 266.849 1145.91 265.263 1147.22 264.336 1148.53 263.409 1149.99 262.945 1151.6 262.945Z" fill="#FFFFFF" fill-rule="evenodd"/><text fill="#000000" fill-opacity="0" font-family="Arial,Arial_MSFontService,sans-serif" font-size="46.0625" x="1141.04" y="303.25">𝑦</text></g></svg>