<svg width="1248" height="576" xmlns="http://www.w3.org/2000/svg" xmlns:xlink="http://www.w3.org/1999/xlink" overflow="hidden"><defs><clipPath id="clip0"><path d="M0 0 1248 0 1248 576 0 576Z" fill-rule="evenodd" clip-rule="evenodd"/></clipPath></defs><g clip-path="url(#clip0)"><rect x="0" y="0" width="1248" height="576" fill="#000000" fill-opacity="0"/><rect x="109.5" y="56.5001" width="174" height="191" stroke="#FFFFFF" stroke-width="1.33333" stroke-miterlimit="8" fill="none"/><text fill="#FFFFFF" font-family="Ubuntu,Ubuntu_MSFontService,sans-serif" font-weight="400" font-size="29" transform="translate(139.691 145)">Data I/O</text><path d="M218.832 158.758C221.588 159.485 223.705 161.055 225.183 163.467 226.66 165.879 227.399 168.788 227.399 172.196 227.399 175.614 226.662 178.524 225.19 180.926 223.717 183.329 221.598 184.893 218.832 185.62L218.492 184.53C220.673 183.803 222.294 182.368 223.356 180.225 224.418 178.082 224.949 175.359 224.949 172.055 224.949 168.864 224.42 166.214 223.363 164.104 222.306 161.994 220.668 160.576 218.45 159.849ZM172.581 158.758 172.963 159.849C170.754 160.576 169.118 161.994 168.056 164.104 166.994 166.214 166.463 168.864 166.463 172.055 166.463 175.359 166.994 178.082 168.056 180.225 169.118 182.368 170.74 183.803 172.92 184.53L172.581 185.62C169.815 184.893 167.695 183.329 166.223 180.926 164.75 178.524 164.014 175.614 164.014 172.196 164.014 168.788 164.752 165.879 166.23 163.467 167.707 161.055 169.824 159.485 172.581 158.758Z" fill="#FFFFFF" fill-rule="evenodd"/><text fill="#FFFFFF" font-family="Cambria Math,Cambria Math_MSFontService,sans-serif" font-weight="400" font-size="29" transform="translate(173.638 180)">ğ‘¥<tspan x="16.5533" y="0">,</tspan><tspan x="27.44" y="0">ğ‘¦</tspan></text><rect x="414.5" y="56.5001" width="362" height="191" stroke="#FFFFFF" stroke-width="1.33333" stroke-miterlimit="8" fill="none"/><text fill="#FFFFFF" font-family="Ubuntu,Ubuntu_MSFontService,sans-serif" font-weight="400" font-size="29" transform="translate(491.22 145)">Network Model<tspan font-family="Cambria Math,Cambria Math_MSFontService,sans-serif" x="33.2733" y="35">ğ‘¦</tspan></text><path d="M6.95264-20.4189 11.7671-15.9585 11.0024-15.1514 6.00391-18.5923 5.84814-18.5923 0.764648-15.1514 0-15.9585 5.05518-20.4189Z" fill="#FFFFFF" transform="translate(528.347 180)"/><text fill="#FFFFFF" font-family="Cambria Math,Cambria Math_MSFontService,sans-serif" font-weight="400" font-size="29" transform="translate(549.474 180)">=<tspan x="29.98" y="0">ğ‘“</tspan><tspan x="47.0067" y="0">(</tspan><tspan x="59.1733" y="0">ğ‘¥</tspan><tspan x="75.7266" y="0">,</tspan><tspan x="86.6133" y="0">ğœƒ</tspan><tspan x="103.973" y="0">)</tspan></text><rect x="404.5" y="330.5" width="400" height="164" stroke="#FFFFFF" stroke-width="1.33333" stroke-miterlimit="8" fill="none"/><text fill="#FFFFFF" font-family="Ubuntu,Ubuntu_MSFontService,sans-serif" font-weight="400" font-size="29" transform="translate(460.816 405)">Optimization Scheme<tspan font-family="Cambria Math,Cambria Math_MSFontService,sans-serif" x="17.5867" y="36">ğœƒ</tspan><tspan font-family="Cambria Math,Cambria Math_MSFontService,sans-serif" font-size="21" x="35.52" y="25">ğ‘–</tspan><tspan font-family="Cambria Math,Cambria Math_MSFontService,sans-serif" font-size="21" x="43.7534" y="25">+</tspan><tspan font-family="Cambria Math,Cambria Math_MSFontService,sans-serif" font-size="21" x="59.2533" y="25">1</tspan><tspan font-family="Cambria Math,Cambria Math_MSFontService,sans-serif" x="80.9533" y="36">=</tspan><tspan font-family="Cambria Math,Cambria Math_MSFontService,sans-serif" x="110.933" y="36">ğœƒ</tspan><tspan font-family="Cambria Math,Cambria Math_MSFontService,sans-serif" font-size="21" x="128.867" y="25">ğ‘–</tspan><tspan font-family="Cambria Math,Cambria Math_MSFontService,sans-serif" x="144.84" y="36">âˆ’</tspan><tspan font-family="Cambria Math,Cambria Math_MSFontService,sans-serif" x="173.193" y="36">ğœ‚</tspan><tspan font-family="Cambria Math,Cambria Math_MSFontService,sans-serif" x="189.387" y="36">âˆ‡</tspan><tspan font-family="Cambria Math,Cambria Math_MSFontService,sans-serif" font-size="21" x="206.887" y="42">Î¸</tspan><tspan font-family="Cambria Math,Cambria Math_MSFontService,sans-serif" x="221.273" y="36">ğ½</tspan></text><path d="M717.81 419.36C720.567 420.087 722.684 421.657 724.161 424.069 725.638 426.481 726.377 429.391 726.377 432.798 726.377 436.216 725.641 439.126 724.168 441.528 722.695 443.931 720.576 445.495 717.81 446.222L717.47 445.132C719.651 444.405 721.272 442.97 722.334 440.827 723.396 438.684 723.927 435.961 723.927 432.657 723.927 429.466 723.399 426.816 722.341 424.706 721.284 422.596 719.646 421.178 717.428 420.451ZM704.945 419.36 705.328 420.451C703.119 421.178 701.483 422.596 700.421 424.706 699.359 426.816 698.828 429.466 698.828 432.657 698.828 435.961 699.359 438.684 700.421 440.827 701.483 442.97 703.105 444.405 705.285 445.132L704.945 446.222C702.179 445.495 700.06 443.931 698.588 441.528 697.115 439.126 696.379 436.216 696.379 432.798 696.379 429.391 697.117 426.481 698.595 424.069 700.072 421.657 702.189 420.087 704.945 419.36Z" fill="#FFFFFF" fill-rule="evenodd"/><text fill="#FFFFFF" font-family="Cambria Math,Cambria Math_MSFontService,sans-serif" font-weight="400" font-size="29" transform="translate(706.003 441)">.</text><rect x="885.5" y="69.5001" width="281" height="165" stroke="#FFFFFF" stroke-width="1.33333" stroke-miterlimit="8" fill="none"/><text fill="#FFFFFF" font-family="Ubuntu,Ubuntu_MSFontService,sans-serif" font-weight="400" font-size="29" transform="translate(933.513 145)">Cost Function<tspan font-family="Cambria Math,Cambria Math_MSFontService,sans-serif" x="51.6" y="35">ğ½</tspan></text><path d="M1054.5 158.758C1057.26 159.485 1059.37 161.055 1060.85 163.467 1062.33 165.879 1063.07 168.788 1063.07 172.196 1063.07 175.614 1062.33 178.524 1060.86 180.926 1059.39 183.329 1057.27 184.893 1054.5 185.62L1054.16 184.53C1056.34 183.803 1057.96 182.368 1059.02 180.225 1060.09 178.082 1060.62 175.359 1060.62 172.055 1060.62 168.864 1060.09 166.214 1059.03 164.104 1057.97 161.994 1056.34 160.576 1054.12 159.849ZM1007.97 158.758 1008.35 159.849C1006.14 160.576 1004.51 161.994 1003.44 164.104 1002.38 166.214 1001.85 168.864 1001.85 172.055 1001.85 175.359 1002.38 178.082 1003.44 180.225 1004.51 182.368 1006.13 183.803 1008.31 184.53L1007.97 185.62C1005.2 184.893 1003.08 183.329 1001.61 180.926 1000.14 178.524 999.401 175.614 999.401 172.196 999.401 168.788 1000.14 165.879 1001.62 163.467 1003.09 161.055 1005.21 159.485 1007.97 158.758Z" fill="#FFFFFF" fill-rule="evenodd"/><text fill="#FFFFFF" font-family="Cambria Math,Cambria Math_MSFontService,sans-serif" font-weight="400" font-size="29" transform="translate(1009.03 180)">ğ‘¦<tspan x="16.8334" y="0">,</tspan><tspan x="27.72" y="0">ğ‘¦</tspan></text><path d="M6.95264-20.4189 11.7671-15.9585 11.0024-15.1514 6.00391-18.5923 5.84814-18.5923 0.764648-15.1514 0-15.9585 5.05518-20.4189Z" fill="#FFFFFF" transform="translate(1040.6 180)"/><path d="M283.5 152.167 407.959 152.167 407.959 152.833 283.5 152.833ZM406.626 148.5 414.626 152.5 406.626 156.5Z" fill="#FFFFFF"/><path d="M776.5 152.167 878.504 152.167 878.504 152.833 776.5 152.833ZM877.17 148.5 885.17 152.5 877.17 156.5Z" fill="#FFFFFF"/><path d="M1026.34 234.5 1026.34 412.689 811.167 412.689 811.167 412.023 1026.01 412.023 1025.67 412.356 1025.67 234.5ZM812.5 416.356 804.5 412.356 812.5 408.356Z" fill="#FFFFFF"/></g></svg>