<svg width="960" height="480" xmlns="http://www.w3.org/2000/svg" xmlns:xlink="http://www.w3.org/1999/xlink" overflow="hidden"><defs><clipPath id="clip0"><path d="M0 0 960 0 960 480 0 480Z" fill-rule="evenodd" clip-rule="evenodd"/></clipPath></defs><g clip-path="url(#clip0)"><rect x="0" y="0" width="960" height="480" fill="#000000" fill-opacity="0"/><rect x="98.5001" y="41.5001" width="740" height="397" stroke="#FFFFFF" stroke-width="3" stroke-miterlimit="8" fill="none"/><text fill="#FFFFFF" font-family="Consolas,Consolas_MSFontService,sans-serif" font-weight="400" font-size="32" transform="translate(312.165 99)">x = <tspan x="70.6667" y="0">torch.tensor</tspan>(…)</text><path d="M126.5 278.5C126.5 204.494 215.148 144.5 324.5 144.5 433.852 144.5 522.5 204.494 522.5 278.5 522.5 352.506 433.852 412.5 324.5 412.5 215.148 412.5 126.5 352.506 126.5 278.5Z" stroke="#FFFFFF" stroke-width="3" stroke-miterlimit="8" fill="none" fill-rule="evenodd"/><text fill="#FFFFFF" font-family="Consolas,Consolas_MSFontService,sans-serif" font-weight="400" font-size="27" transform="translate(150.602 287)">x.requires_grad<tspan x="220" y="0">=True</tspan><tspan x="410.942" y="0">x.is_leaf</tspan>=True</text><path d="M468.5 278.5C468.5 212.778 544.388 159.5 638 159.5 731.612 159.5 807.5 212.778 807.5 278.5 807.5 344.222 731.612 397.5 638 397.5 544.388 397.5 468.5 344.222 468.5 278.5Z" stroke="#FFFFFF" stroke-width="3" stroke-miterlimit="8" fill="none" fill-rule="evenodd"/><path d="M495.921 213 506.355 225.919C516.429 241.926 522 259.526 522 278 522 296.474 516.429 314.074 506.355 330.082L495.921 343 481.406 324.338C472.774 310.096 468 294.437 468 278 468 261.563 472.774 245.904 481.406 231.662Z" fill="#0070C0" fill-rule="evenodd" fill-opacity="0.501961"/><path d="M1.5-3.07014e-06 1.50009 43.7942-1.49991 43.7942-1.5 3.07014e-06ZM4.50009 42.2942 0.000104987 51.2942-4.49991 42.2942Z" fill="#FFFFFF" transform="matrix(1 0 0 -1 497.5 405.794)"/></g></svg>